<svg width="34" height="35" viewBox="0 0 34 35" fill="none" xmlns="http://www.w3.org/2000/svg">
<path d="M8.55382 25.3207L5.42536 28.4492C5.07665 28.7979 4.67541 28.8776 4.22165 28.6885C3.76789 28.4994 3.54102 28.1583 3.54102 27.6655V6.28661C3.54102 5.67773 3.7581 5.1562 4.19226 4.72204C4.62642 4.28788 5.14794 4.0708 5.75682 4.0708H28.2418C28.8507 4.0708 29.3722 4.28788 29.8064 4.72204C30.2405 5.1562 30.4576 5.67773 30.4576 6.28661V23.1049C30.4576 23.7138 30.2405 24.2353 29.8064 24.6695C29.3722 25.1036 28.8507 25.3207 28.2418 25.3207H8.55382ZM7.78376 23.5409H28.2418C28.3508 23.5409 28.4507 23.4954 28.5415 23.4046C28.6323 23.3138 28.6777 23.2139 28.6777 23.1049V6.28661C28.6777 6.17762 28.6323 6.07772 28.5415 5.98692C28.4507 5.89608 28.3508 5.85067 28.2418 5.85067H5.75682C5.64784 5.85067 5.54794 5.89608 5.45713 5.98692C5.3663 6.07772 5.32088 6.17762 5.32088 6.28661V26.1018L7.78376 23.5409ZM9.74343 20.0228H18.4686C18.7213 20.0228 18.9327 19.9372 19.1031 19.766C19.2734 19.5949 19.3586 19.3824 19.3586 19.1286C19.3586 18.8747 19.2734 18.6637 19.1031 18.4954C18.9327 18.3271 18.7213 18.2429 18.4686 18.2429H9.74343C9.49084 18.2429 9.27937 18.3285 9.10901 18.4997C8.93868 18.6708 8.85352 18.8833 8.85352 19.1372C8.85352 19.391 8.93868 19.602 9.10901 19.7703C9.27937 19.9386 9.49084 20.0228 9.74343 20.0228ZM9.74343 15.6002H24.2552C24.5078 15.6002 24.7193 15.5146 24.8896 15.3435C25.0599 15.1723 25.1451 14.9598 25.1451 14.706C25.1451 14.4522 25.0599 14.2411 24.8896 14.0728C24.7193 13.9045 24.5078 13.8204 24.2552 13.8204H9.74343C9.49084 13.8204 9.27937 13.906 9.10901 14.0771C8.93868 14.2483 8.85352 14.4608 8.85352 14.7146C8.85352 14.9684 8.93868 15.1795 9.10901 15.3478C9.27937 15.5161 9.49084 15.6002 9.74343 15.6002ZM9.74343 11.1777H24.2552C24.5078 11.1777 24.7193 11.0921 24.8896 10.9209C25.0599 10.7498 25.1451 10.5373 25.1451 10.2835C25.1451 10.0296 25.0599 9.81857 24.8896 9.65027C24.7193 9.48197 24.5078 9.39782 24.2552 9.39782H9.74343C9.49084 9.39782 9.27937 9.4834 9.10901 9.65456C8.93868 9.82574 8.85352 10.0382 8.85352 10.2921C8.85352 10.5459 8.93868 10.7569 9.10901 10.9252C9.27937 11.0935 9.49084 11.1777 9.74343 11.1777Z" fill="black"/>
</svg>
