<svg width="34" height="34" viewBox="0 0 34 34" fill="none" xmlns="http://www.w3.org/2000/svg">
<path d="M8.55382 24.7919L5.42536 27.9203C5.07665 28.2691 4.67541 28.3488 4.22165 28.1597C3.76789 27.9705 3.54102 27.6295 3.54102 27.1366V5.7578C3.54102 5.14892 3.7581 4.6274 4.19226 4.19323C4.62642 3.75907 5.14794 3.54199 5.75682 3.54199H28.2418C28.8507 3.54199 29.3722 3.75907 29.8064 4.19323C30.2405 4.6274 30.4576 5.14892 30.4576 5.7578V22.5761C30.4576 23.185 30.2405 23.7065 29.8064 24.1407C29.3722 24.5748 28.8507 24.7919 28.2418 24.7919H8.55382ZM7.78376 23.0121H28.2418C28.3508 23.0121 28.4507 22.9666 28.5415 22.8758C28.6323 22.785 28.6777 22.6851 28.6777 22.5761V5.7578C28.6777 5.64881 28.6323 5.54891 28.5415 5.45811C28.4507 5.36727 28.3508 5.32186 28.2418 5.32186H5.75682C5.64784 5.32186 5.54794 5.36727 5.45713 5.45811C5.3663 5.54891 5.32088 5.64881 5.32088 5.7578V25.573L7.78376 23.0121ZM9.74343 19.494H18.4686C18.7213 19.494 18.9327 19.4084 19.1031 19.2372C19.2734 19.0661 19.3586 18.8536 19.3586 18.5997C19.3586 18.3459 19.2734 18.1349 19.1031 17.9666C18.9327 17.7983 18.7213 17.7141 18.4686 17.7141H9.74343C9.49084 17.7141 9.27937 17.7997 9.10901 17.9708C8.93868 18.142 8.85352 18.3545 8.85352 18.6083C8.85352 18.8622 8.93868 19.0732 9.10901 19.2415C9.27937 19.4098 9.49084 19.494 9.74343 19.494ZM9.74343 15.0714H24.2552C24.5078 15.0714 24.7193 14.9858 24.8896 14.8147C25.0599 14.6435 25.1451 14.431 25.1451 14.1772C25.1451 13.9234 25.0599 13.7123 24.8896 13.544C24.7193 13.3757 24.5078 13.2916 24.2552 13.2916H9.74343C9.49084 13.2916 9.27937 13.3771 9.10901 13.5483C8.93868 13.7195 8.85352 13.932 8.85352 14.1858C8.85352 14.4396 8.93868 14.6507 9.10901 14.819C9.27937 14.9873 9.49084 15.0714 9.74343 15.0714ZM9.74343 10.6489H24.2552C24.5078 10.6489 24.7193 10.5633 24.8896 10.3921C25.0599 10.221 25.1451 10.0085 25.1451 9.75464C25.1451 9.50082 25.0599 9.28976 24.8896 9.12146C24.7193 8.95316 24.5078 8.86901 24.2552 8.86901H9.74343C9.49084 8.86901 9.27937 8.95459 9.10901 9.12575C8.93868 9.29693 8.85352 9.50943 8.85352 9.76325C8.85352 10.0171 8.93868 10.2281 9.10901 10.3964C9.27937 10.5647 9.49084 10.6489 9.74343 10.6489Z" fill="#09855D"/>
</svg>
