<svg width="34" height="34" viewBox="0 0 34 34" fill="none" xmlns="http://www.w3.org/2000/svg">
<path d="M9.57088 18.6218V28.5058C9.57088 28.758 9.48514 28.9693 9.31365 29.1399C9.14216 29.3105 8.92967 29.3958 8.67618 29.3958C8.42267 29.3958 8.21177 29.3105 8.04347 29.1399C7.87517 28.9693 7.79102 28.758 7.79102 28.5058V7.48291C7.79102 7.169 7.89719 6.90587 8.10955 6.69354C8.32189 6.48118 8.58501 6.375 8.89892 6.375H18.0663C18.3196 6.375 18.5509 6.45628 18.7603 6.61884C18.9696 6.78141 19.1004 6.99678 19.1524 7.26495L19.5874 9.3137H26.5164C26.8303 9.3137 27.0934 9.41935 27.3057 9.63064C27.5181 9.84196 27.6243 10.1038 27.6243 10.4162V20.4438C27.6243 20.7502 27.5181 21.0106 27.3057 21.2247C27.0934 21.4389 26.8303 21.5459 26.5164 21.5459H20.3113C20.0499 21.5459 19.8166 21.4671 19.6113 21.3094C19.4059 21.1517 19.2772 20.9387 19.2251 20.6705L18.7811 18.6218H9.57088ZM20.9115 19.7661H25.8444V11.0936H18.9872C18.7259 11.0936 18.4925 11.0123 18.2872 10.8497C18.0818 10.6872 17.9532 10.4718 17.9011 10.2036L17.457 8.15486H9.57088V16.8419H19.3904C19.6437 16.8419 19.8735 16.9208 20.0798 17.0785C20.2862 17.2362 20.4184 17.4492 20.4765 17.7174L20.9115 19.7661Z" fill="#09855D"/>
</svg>
