<svg width="34" height="35" viewBox="0 0 34 35" fill="none" xmlns="http://www.w3.org/2000/svg">
<path d="M9.57088 19.1511V29.0351C9.57088 29.2873 9.48514 29.4986 9.31365 29.6692C9.14216 29.8398 8.92967 29.9251 8.67618 29.9251C8.42267 29.9251 8.21177 29.8398 8.04347 29.6692C7.87517 29.4986 7.79102 29.2873 7.79102 29.0351V8.0122C7.79102 7.69829 7.89719 7.43517 8.10955 7.22284C8.32189 7.01048 8.58501 6.9043 8.89892 6.9043H18.0663C18.3196 6.9043 18.5509 6.98558 18.7603 7.14814C18.9696 7.3107 19.1004 7.52607 19.1524 7.79425L19.5874 9.843H26.5164C26.8303 9.843 27.0934 9.94864 27.3057 10.1599C27.5181 10.3713 27.6243 10.6331 27.6243 10.9455V20.9731C27.6243 21.2795 27.5181 21.5399 27.3057 21.754C27.0934 21.9682 26.8303 22.0752 26.5164 22.0752H20.3113C20.0499 22.0752 19.8166 21.9964 19.6113 21.8387C19.4059 21.681 19.2772 21.468 19.2251 21.1998L18.7811 19.1511H9.57088ZM20.9115 20.2954H25.8444V11.6229H18.9872C18.7259 11.6229 18.4925 11.5416 18.2872 11.379C18.0818 11.2165 17.9532 11.0011 17.9011 10.7329L17.457 8.68416H9.57088V17.3712H19.3904C19.6437 17.3712 19.8735 17.4501 20.0798 17.6078C20.2862 17.7655 20.4184 17.9785 20.4765 18.2467L20.9115 20.2954Z" fill="black"/>
</svg>
