<svg width="34" height="34" viewBox="0 0 34 34" fill="none" xmlns="http://www.w3.org/2000/svg">
<path d="M16.9997 23.702C17.2951 23.702 17.5397 23.6052 17.7336 23.4116C17.9275 23.218 18.0244 22.9735 18.0244 22.678C18.0244 22.3827 17.9276 22.138 17.734 21.9441C17.5404 21.7502 17.2959 21.6533 17.0005 21.6533C16.7051 21.6533 16.4604 21.7501 16.2666 21.9437C16.0727 22.1373 15.9757 22.3818 15.9757 22.6772C15.9757 22.9726 16.0725 23.2173 16.2661 23.4112C16.4598 23.605 16.7043 23.702 16.9997 23.702ZM17.0575 18.6456C17.311 18.6456 17.5219 18.5603 17.6902 18.3898C17.8585 18.2192 17.9427 18.0078 17.9427 17.7557V10.8103C17.9427 10.5582 17.857 10.3468 17.6855 10.1762C17.514 10.0057 17.3015 9.9204 17.048 9.9204C16.7945 9.9204 16.5836 10.0057 16.4153 10.1762C16.247 10.3468 16.1628 10.5582 16.1628 10.8103V17.7557C16.1628 18.0078 16.2486 18.2192 16.4201 18.3898C16.5915 18.5603 16.804 18.6456 17.0575 18.6456ZM12.5543 27.625H8.59092C7.98627 27.625 7.46581 27.4069 7.02955 26.9706C6.59326 26.5344 6.37512 26.0139 6.37512 25.4092V21.4594L3.48912 18.553C3.26458 18.3311 3.10234 18.0869 3.00242 17.8204C2.9025 17.5539 2.85254 17.2828 2.85254 17.007C2.85254 16.7313 2.9025 16.4579 3.00242 16.1867C3.10234 15.9156 3.26458 15.6691 3.48912 15.4472L6.37512 12.5407V8.59093C6.37512 7.98627 6.59326 7.46581 7.02955 7.02955C7.46581 6.59326 7.98627 6.37512 8.59092 6.37512H12.5407L15.4472 3.48005C15.6682 3.26392 15.9156 3.1053 16.1893 3.00419C16.4631 2.90309 16.7383 2.85254 17.0149 2.85254C17.2915 2.85254 17.5643 2.90706 17.8334 3.01609C18.1025 3.12511 18.3472 3.28763 18.5675 3.50367L21.4513 6.37512H25.4092C26.0139 6.37512 26.5344 6.59326 26.9706 7.02955C27.4069 7.46581 27.625 7.98627 27.625 8.59093V12.5407L30.5201 15.4472C30.7362 15.6682 30.8949 15.9123 30.996 16.1795C31.0971 16.4467 31.1476 16.7185 31.1476 16.995C31.1476 17.2714 31.0971 17.5449 30.996 17.8156C30.8949 18.0862 30.7362 18.332 30.5201 18.553L27.625 21.4594V25.4092C27.625 26.0139 27.4069 26.5344 26.9706 26.9706C26.5344 27.4069 26.0139 27.625 25.4092 27.625H21.4513L18.5675 30.482C18.3463 30.6899 18.1024 30.8465 17.8357 30.9517C17.569 31.0569 17.2977 31.1095 17.0218 31.1095C16.744 31.1095 16.4712 31.0569 16.2034 30.9517C15.9357 30.8465 15.6915 30.6899 15.4708 30.482L12.5543 27.625ZM13.2847 25.8452L16.7013 29.1934C16.783 29.2751 16.8875 29.316 17.0146 29.316C17.1417 29.316 17.2462 29.2751 17.3279 29.1934L20.6951 25.8452H25.4092C25.5364 25.8452 25.6408 25.8043 25.7226 25.7226C25.8043 25.6408 25.8452 25.5364 25.8452 25.4092V20.7024L29.2315 17.3134C29.3133 17.2317 29.3541 17.1272 29.3541 17.0001C29.3541 16.8729 29.3133 16.7685 29.2315 16.6868L25.8437 13.2978V8.59093C25.8437 8.46378 25.8028 8.35934 25.721 8.2776C25.6393 8.19585 25.5349 8.15498 25.4077 8.15498H20.7009L17.3279 4.76865C17.2462 4.68691 17.1417 4.64604 17.0146 4.64604C16.8875 4.64604 16.783 4.68691 16.7013 4.76865L13.2993 8.15498H8.59245C8.4653 8.15498 8.36086 8.19585 8.27912 8.2776C8.19738 8.35934 8.1565 8.46378 8.1565 8.59093V13.2978L4.76865 16.6868C4.68691 16.7685 4.64604 16.8729 4.64604 17.0001C4.64604 17.1272 4.68691 17.2317 4.76865 17.3134L8.15498 20.7024V25.4092C8.15498 25.5364 8.19585 25.6408 8.27759 25.7226C8.35934 25.8043 8.46378 25.8452 8.59092 25.8452H13.2847Z" fill="#09855D"/>
</svg>
