<svg width="34" height="35" viewBox="0 0 34 35" fill="none" xmlns="http://www.w3.org/2000/svg">
<path d="M16.9987 24.2313C17.2941 24.2313 17.5387 24.1345 17.7326 23.9409C17.9265 23.7473 18.0235 23.5028 18.0235 23.2073C18.0235 22.9119 17.9267 22.6673 17.733 22.4734C17.5394 22.2795 17.2949 22.1826 16.9995 22.1826C16.7041 22.1826 16.4595 22.2794 16.2656 22.473C16.0717 22.6666 15.9747 22.9111 15.9747 23.2065C15.9747 23.5019 16.0716 23.7466 16.2652 23.9405C16.4588 24.1343 16.7033 24.2313 16.9987 24.2313ZM17.0566 19.1749C17.3101 19.1749 17.521 19.0896 17.6893 18.9191C17.8576 18.7485 17.9417 18.5371 17.9417 18.285V11.3396C17.9417 11.0875 17.856 10.8761 17.6845 10.7055C17.513 10.535 17.3005 10.4497 17.047 10.4497C16.7935 10.4497 16.5826 10.535 16.4143 10.7055C16.246 10.8761 16.1619 11.0875 16.1619 11.3396V18.285C16.1619 18.5371 16.2476 18.7485 16.4191 18.9191C16.5906 19.0896 16.8031 19.1749 17.0566 19.1749ZM12.5534 28.1543H8.58995C7.98529 28.1543 7.46483 27.9362 7.02857 27.4999C6.59228 27.0637 6.37414 26.5432 6.37414 25.9385V21.9887L3.48814 19.0823C3.2636 18.8604 3.10137 18.6162 3.00145 18.3497C2.90152 18.0832 2.85156 17.8121 2.85156 17.5363C2.85156 17.2606 2.90152 16.9872 3.00145 16.716C3.10137 16.4449 3.2636 16.1984 3.48814 15.9765L6.37414 13.07V9.12022C6.37414 8.51557 6.59228 7.99511 7.02857 7.55884C7.46483 7.12256 7.98529 6.90441 8.58995 6.90441H12.5398L15.4462 4.00935C15.6672 3.79321 15.9146 3.63459 16.1883 3.53349C16.4621 3.43239 16.7373 3.38184 17.0139 3.38184C17.2905 3.38184 17.5634 3.43636 17.8324 3.54539C18.1015 3.6544 18.3462 3.81693 18.5665 4.03297L21.4503 6.90441H25.4083C26.0129 6.90441 26.5334 7.12256 26.9696 7.55884C27.4059 7.99511 27.6241 8.51557 27.6241 9.12022V13.07L30.5191 15.9765C30.7353 16.1975 30.8939 16.4416 30.995 16.7088C31.0961 16.976 31.1467 17.2478 31.1467 17.5243C31.1467 17.8007 31.0961 18.0742 30.995 18.3448C30.8939 18.6155 30.7353 18.8613 30.5191 19.0823L27.6241 21.9887V25.9385C27.6241 26.5432 27.4059 27.0637 26.9696 27.4999C26.5334 27.9362 26.0129 28.1543 25.4083 28.1543H21.4503L18.5665 31.0113C18.3453 31.2192 18.1014 31.3758 17.8347 31.481C17.568 31.5862 17.2967 31.6388 17.0208 31.6388C16.743 31.6388 16.4702 31.5862 16.2024 31.481C15.9347 31.3758 15.6905 31.2192 15.4698 31.0113L12.5534 28.1543ZM13.2838 26.3745L16.7003 29.7227C16.782 29.8044 16.8865 29.8453 17.0136 29.8453C17.1408 29.8453 17.2452 29.8044 17.327 29.7227L20.6942 26.3745H25.4083C25.5354 26.3745 25.6399 26.3336 25.7216 26.2519C25.8033 26.1701 25.8442 26.0657 25.8442 25.9385V21.2317L29.2305 17.8427C29.3123 17.761 29.3531 17.6565 29.3531 17.5294C29.3531 17.4022 29.3123 17.2978 29.2305 17.216L25.8427 13.8271V9.12022C25.8427 8.99308 25.8018 8.88863 25.7201 8.80689C25.6383 8.72515 25.5339 8.68428 25.4067 8.68428H20.6999L17.327 5.29795C17.2452 5.21621 17.1408 5.17534 17.0136 5.17534C16.8865 5.17534 16.782 5.21621 16.7003 5.29795L13.2983 8.68428H8.59147C8.46433 8.68428 8.35988 8.72515 8.27814 8.80689C8.1964 8.88863 8.15553 8.99308 8.15553 9.12022V13.8271L4.76768 17.216C4.68593 17.2978 4.64506 17.4022 4.64506 17.5294C4.64506 17.6565 4.68593 17.761 4.76768 17.8427L8.154 21.2317V25.9385C8.154 26.0657 8.19488 26.1701 8.27662 26.2519C8.35836 26.3336 8.4628 26.3745 8.58995 26.3745H13.2838Z" fill="black"/>
</svg>
