<svg width="34" height="34" viewBox="0 0 34 34" fill="none" xmlns="http://www.w3.org/2000/svg">
<path d="M17 29.6684C16.4158 29.6684 15.9092 29.5147 15.4802 29.2071C15.0513 28.8996 14.7848 28.4927 14.6807 27.9866H14.0322C13.5596 27.9866 13.1448 27.8081 12.7878 27.4512C12.4308 27.0942 12.2524 26.6794 12.2524 26.2068V21.5445C10.737 20.6273 9.55571 19.4244 8.70843 17.9356C7.86114 16.4469 7.4375 14.8365 7.4375 13.1045C7.4375 10.4382 8.36468 8.17794 10.2191 6.32355C12.0734 4.46918 14.3338 3.54199 17 3.54199C19.6662 3.54199 21.9265 4.46918 23.7809 6.32355C25.6352 8.17794 26.5624 10.4382 26.5624 13.1045C26.5624 14.8462 26.1393 16.4592 25.2932 17.9435C24.447 19.4277 23.2651 20.6281 21.7476 21.5445V26.2068C21.7476 26.6794 21.5691 27.0942 21.2121 27.4512C20.8552 27.8081 20.4404 27.9866 19.9677 27.9866H19.3193C19.2151 28.4927 18.9486 28.8996 18.5197 29.2071C18.0907 29.5147 17.5842 29.6684 17 29.6684ZM14.0322 26.2068H19.9677V24.7429H14.0322V26.2068ZM14.0322 23.4897H19.9677V22.0784H14.0322V23.4897ZM13.7253 20.2986H16.2753V15.6708L13.6617 13.0572C13.5201 12.9155 13.4509 12.7525 13.4542 12.5682C13.4576 12.3839 13.5331 12.2163 13.6808 12.0656C13.8285 11.9148 13.9938 11.8394 14.1766 11.8394C14.3594 11.8394 14.5262 11.9148 14.677 12.0656L17 14.4031L19.3375 12.0656C19.4791 11.9239 19.6437 11.8532 19.831 11.8535C20.0184 11.8538 20.1875 11.9293 20.3382 12.0801C20.489 12.2308 20.5643 12.3952 20.5643 12.5732C20.5643 12.7512 20.489 12.9125 20.3382 13.0572L17.7246 15.6708V20.2986H20.2747C21.6199 19.6653 22.7075 18.7038 23.5375 17.414C24.3676 16.1241 24.7826 14.6876 24.7826 13.1045C24.7826 10.9274 24.0297 9.08604 22.524 7.58038C21.0184 6.0747 19.177 5.32186 17 5.32186C14.8229 5.32186 12.9815 6.0747 11.4759 7.58038C9.9702 9.08604 9.21736 10.9274 9.21736 13.1045C9.21736 14.6876 9.63238 16.1241 10.4624 17.414C11.2924 18.7038 12.38 19.6653 13.7253 20.2986Z" fill="#09855D"/>
</svg>
