<svg width="34" height="35" viewBox="0 0 34 35" fill="none" xmlns="http://www.w3.org/2000/svg">
<path d="M17 30.1973C16.4158 30.1973 15.9092 30.0435 15.4802 29.736C15.0513 29.4284 14.7848 29.0216 14.6807 28.5154H14.0322C13.5596 28.5154 13.1448 28.3369 12.7878 27.98C12.4308 27.623 12.2524 27.2082 12.2524 26.7356V22.0733C10.737 21.1561 9.55571 19.9532 8.70843 18.4645C7.86114 16.9758 7.4375 15.3654 7.4375 13.6333C7.4375 10.9671 8.36468 8.70675 10.2191 6.85236C12.0734 4.99799 14.3338 4.0708 17 4.0708C19.6662 4.0708 21.9265 4.99799 23.7809 6.85236C25.6352 8.70675 26.5624 10.9671 26.5624 13.6333C26.5624 15.375 26.1393 16.988 25.2932 18.4723C24.447 19.9565 23.2651 21.1569 21.7476 22.0733V26.7356C21.7476 27.2082 21.5691 27.623 21.2121 27.98C20.8552 28.3369 20.4404 28.5154 19.9677 28.5154H19.3193C19.2151 29.0216 18.9486 29.4284 18.5197 29.736C18.0907 30.0435 17.5842 30.1973 17 30.1973ZM14.0322 26.7356H19.9677V25.2717H14.0322V26.7356ZM14.0322 24.0185H19.9677V22.6072H14.0322V24.0185ZM13.7253 20.8274H16.2753V16.1996L13.6617 13.586C13.5201 13.4444 13.4509 13.2814 13.4542 13.097C13.4576 12.9127 13.5331 12.7451 13.6808 12.5944C13.8285 12.4436 13.9938 12.3683 14.1766 12.3683C14.3594 12.3683 14.5262 12.4436 14.677 12.5944L17 14.9319L19.3375 12.5944C19.4791 12.4527 19.6437 12.382 19.831 12.3824C20.0184 12.3826 20.1875 12.4582 20.3382 12.6089C20.489 12.7596 20.5643 12.924 20.5643 13.102C20.5643 13.28 20.489 13.4413 20.3382 13.586L17.7246 16.1996V20.8274H20.2747C21.6199 20.1941 22.7075 19.2326 23.5375 17.9428C24.3676 16.6529 24.7826 15.2164 24.7826 13.6333C24.7826 11.4562 24.0297 9.61484 22.524 8.10919C21.0184 6.60351 19.177 5.85067 17 5.85067C14.8229 5.85067 12.9815 6.60351 11.4759 8.10919C9.9702 9.61484 9.21736 11.4562 9.21736 13.6333C9.21736 15.2164 9.63238 16.6529 10.4624 17.9428C11.2924 19.2326 12.38 20.1941 13.7253 20.8274Z" fill="black"/>
</svg>
